<svg width="220" height="195" viewBox="0 0 220 195" fill="none" xmlns="http://www.w3.org/2000/svg">
<path d="M58.1476 27.9467C58.2749 28.764 58.1193 29.5909 57.6808 30.4275C57.2423 31.264 56.4933 32.0384 55.434 32.7506L53.6416 33.9556L56.9786 37.8519L53.3569 40.2867L43.4723 28.745L48.8863 25.1053C49.9333 24.4014 50.9636 23.9667 51.9769 23.8014C52.9903 23.6361 53.9294 23.7184 54.7944 24.0484C55.6594 24.3784 56.4143 24.9199 57.0593 25.673C57.6575 26.3715 58.0203 27.1294 58.1476 27.9467ZM53.3637 28.1575C52.644 27.3171 51.7729 27.2406 50.7505 27.9279L49.3092 28.8969L51.4544 31.4017L52.8956 30.4327C53.9181 29.7454 54.0741 28.9869 53.3637 28.1575ZM75.5547 27.9821L70.0682 24.3492L69.6265 24.5311L72.1682 29.3765L68.0454 31.0741L61.1537 17.9355L67.6533 15.2592C68.8452 14.7684 69.951 14.5359 70.9706 14.5618C71.9902 14.5876 72.8782 14.8339 73.6345 15.3005C74.3908 15.7671 74.9775 16.398 75.3946 17.1932C75.8638 18.0877 75.9991 18.9876 75.8003 19.8928C75.6016 20.798 75.0443 21.6129 74.1285 22.3374L80.1612 26.0853L75.5547 27.9821ZM68.3166 22.0338L70.3569 21.1937C70.9178 20.9627 71.2766 20.6715 71.4333 20.3199C71.5899 19.9684 71.5509 19.569 71.3163 19.1217C71.0947 18.6993 70.7766 18.4261 70.3621 18.3022C69.9475 18.1783 69.4668 18.229 68.9199 18.4541L66.8796 19.2943L68.3166 22.0338ZM88.4876 23.1141C87.0866 22.7162 85.8917 22.0296 84.9027 21.0543C83.9137 20.079 83.2591 18.8932 82.9389 17.4968C82.6186 16.1005 82.699 14.7824 83.1799 13.5424C83.6608 12.3025 84.4593 11.2605 85.5754 10.4165C86.6916 9.57242 87.9997 9.01536 89.4999 8.74528C91.0153 8.47247 92.4689 8.53233 93.8607 8.92485C95.2525 9.31738 96.4391 10.002 97.4205 10.9787C98.4019 11.9554 99.0528 13.1419 99.373 14.5382C99.6932 15.9345 99.6167 17.252 99.1433 18.4906C98.67 19.7291 97.876 20.7738 96.7615 21.6246C95.6469 22.4753 94.3395 23.0357 92.8393 23.3058C91.3391 23.5759 89.8885 23.512 88.4876 23.1141ZM94.4659 18.1688C94.9742 17.3922 95.1021 16.4535 94.8496 15.3525C94.591 14.2248 94.0574 13.3946 93.2489 12.8621C92.4403 12.3296 91.4678 12.1657 90.3313 12.3703C89.1796 12.5776 88.3527 13.0655 87.8504 13.834C87.3481 14.6025 87.2263 15.5506 87.485 16.6784C87.7405 17.7928 88.2688 18.6169 89.0697 19.1507C89.8707 19.6846 90.847 19.8478 91.9987 19.6405C93.1352 19.4359 93.9576 18.9453 94.4659 18.1688ZM117.553 7.30172L117.297 16.8962C117.253 18.5261 116.721 19.762 115.701 20.604C114.681 21.446 113.298 21.8487 111.551 21.8121C109.696 21.7732 108.228 21.2834 107.147 20.3425C106.066 19.4017 105.549 18.0684 105.595 16.3426L110.093 16.4369C110.078 17.574 110.535 18.1523 111.462 18.1718C112.297 18.1892 112.727 17.7323 112.752 16.8009L113.008 7.2065L117.553 7.30172ZM130.242 12.2998L129.672 14.6085L134.77 15.5963L134.032 18.5877L128.934 17.5999L128.304 20.1496L134.083 21.269L133.305 24.421L123.085 22.4411L126.578 8.28737L136.798 10.2673L136.02 13.4192L130.242 12.2998ZM144.242 15.8759C145.379 15.11 146.657 14.6725 148.074 14.5635C149.492 14.4545 150.932 14.6973 152.393 15.292C154.248 16.0468 155.58 17.1204 156.39 18.5128C157.2 19.9051 157.397 21.4289 156.981 23.084L152.534 21.2742C152.525 20.6675 152.353 20.1377 152.018 19.6847C151.682 19.2317 151.206 18.8794 150.587 18.6278C149.632 18.2389 148.713 18.2306 147.831 18.6029C146.949 18.9751 146.246 19.6654 145.724 20.6739C145.194 21.6948 145.058 22.623 145.314 23.4584C145.57 24.2938 146.176 24.9059 147.131 25.2948C147.75 25.5464 148.362 25.6372 148.968 25.5673C149.574 25.4974 150.14 25.2678 150.665 24.8785L155.113 26.6883C153.966 28.0461 152.533 28.9065 150.814 29.2696C149.094 29.6327 147.307 29.4368 145.452 28.682C143.991 28.0873 142.845 27.278 142.014 26.254C141.184 25.2301 140.726 24.0864 140.64 22.823C140.555 21.5596 140.851 20.2743 141.529 18.967C142.2 17.6722 143.105 16.6418 144.242 15.8759ZM176.87 29.2884L174.67 31.8339L171.208 29.4851L163.466 38.4431L159.857 35.9945L167.598 27.0364L164.173 24.7127L166.372 22.1672L176.87 29.2884Z" fill="url(#paint0_linear_0_1)"/>
<path d="M45.8313 148.257L32.6276 156.699L30.3065 153.85L38.225 148.787L28.1755 151.233L26.3023 148.934L32.0949 141.226L24.1577 146.301L21.8366 143.451L35.0402 135.009L37.7821 138.375L31.3151 147.502L43.103 144.907L45.8313 148.257ZM49.8457 167.07L45.1243 163.68L42.5566 165.117L39.331 162.801L54.1601 154.879L57.7281 157.441L52.0533 171.936L48.7916 169.594L49.8457 167.07ZM50.9805 164.394L53.1659 159.165L47.863 162.155L50.9805 164.394ZM73.106 181.676L69.5158 180.182L67.7799 169.629L63.5111 177.684L59.9208 176.19L66.8417 163.132L70.4319 164.626L72.1481 175.216L76.4366 167.124L80.0269 168.617L73.106 181.676ZM93.3986 183.769L87.439 182.716L85.9208 185.046L81.8492 184.326L90.813 171.2L95.3169 171.996L97.9083 187.165L93.7912 186.437L93.3986 183.769ZM92.9969 180.932L92.1844 175.403L89.0617 180.237L92.9969 180.932ZM117.41 177.396C117.091 176.929 116.651 176.581 116.089 176.35C115.528 176.119 114.876 176.019 114.135 176.05C112.853 176.103 111.845 176.518 111.112 177.296C110.379 178.073 110.045 179.085 110.11 180.33C110.18 181.658 110.64 182.678 111.49 183.39C112.34 184.103 113.475 184.43 114.897 184.371C115.87 184.331 116.681 184.078 117.33 183.613C117.979 183.147 118.436 182.497 118.702 181.663L113.674 181.871L113.538 179.284L122.157 178.929L122.329 182.193C122.081 183.081 121.626 183.916 120.962 184.697C120.299 185.479 119.439 186.125 118.382 186.635C117.325 187.144 116.117 187.427 114.758 187.483C113.152 187.55 111.703 187.297 110.411 186.726C109.119 186.156 108.093 185.33 107.332 184.251C106.571 183.171 106.153 181.92 106.079 180.496C106.004 179.073 106.289 177.789 106.933 176.645C107.577 175.501 108.509 174.591 109.727 173.917C110.946 173.243 112.358 172.873 113.964 172.806C115.911 172.726 117.574 173.076 118.954 173.856C120.334 174.636 121.279 175.756 121.789 177.216L117.41 177.396ZM145.029 166.814L150.066 180.533L146.294 181.62L143.273 173.393L142.831 182.618L139.787 183.496L133.274 176.253L136.302 184.5L132.53 185.587L127.493 171.868L131.949 170.584L139.781 178.829L140.596 168.092L145.029 166.814ZM155.608 164.588L157.337 167.072L161.858 164.602L163.465 166.911L158.943 169.381L160.818 172.075L165.932 169.282L167.599 171.678L159.109 176.316L150.564 164.035L159.054 159.398L160.722 161.795L155.608 164.588ZM185.758 157.69L182.905 160.131L171.156 157.812L178.132 164.213L175.279 166.654L163.969 156.276L166.822 153.835L178.603 156.183L171.594 149.753L174.447 147.312L185.758 157.69ZM184.764 134.186L187.421 135.731L185.054 138.927L196.011 145.296L193.835 148.234L182.878 141.865L180.511 145.061L177.854 143.516L184.764 134.186Z" fill="url(#paint1_linear_0_1)"/>
<mask id="mask0_0_1" style="mask-type:luminance" maskUnits="userSpaceOnUse" x="44" y="39" width="132" height="117">
<path d="M175.206 39.3177H44.377V155.231H175.206V39.3177Z" fill="white"/>
</mask>
<g mask="url(#mask0_0_1)">
<mask id="mask1_0_1" style="mask-type:luminance" maskUnits="userSpaceOnUse" x="44" y="39" width="132" height="117">
<path d="M175.206 39.3177H44.377V155.231H175.206V39.3177Z" fill="white"/>
</mask>
<g mask="url(#mask1_0_1)">
<path fill-rule="evenodd" clip-rule="evenodd" d="M133.712 151.193C125.822 153.954 117.401 155.326 108.918 155.231C105.223 155.196 101.538 154.874 97.9057 154.269C99.3755 153.854 100.803 153.401 102.166 152.91C114.1 148.779 124.587 141.922 132.562 133.038C140.562 124.127 145.784 113.514 147.707 102.257C148.686 96.3491 147.9 90.3171 145.428 84.7622C142.966 79.218 138.895 74.3482 133.627 70.6457C132.363 69.7435 131.033 68.9176 129.644 68.1735C130.602 68.2678 131.54 68.3811 132.477 68.5132C149.366 70.8844 164.54 79.0117 174.759 91.16C176.596 106.357 171.59 121.583 160.828 133.528C153.696 141.423 144.344 147.515 133.712 151.193Z" fill="#42B0FF"/>
</g>
<mask id="mask2_0_1" style="mask-type:luminance" maskUnits="userSpaceOnUse" x="44" y="39" width="132" height="117">
<path d="M175.206 39.3177H44.377V155.231H175.206V39.3177Z" fill="white"/>
</mask>
<g mask="url(#mask2_0_1)">
<path fill-rule="evenodd" clip-rule="evenodd" d="M150.561 51.9622C157.201 56.624 162.745 62.3946 166.878 68.9472C168.685 71.8005 170.21 74.7872 171.436 77.8738C170.307 76.968 169.135 76.0998 167.943 75.2317C157.93 68.158 145.992 63.5433 133.329 61.8512C120.626 60.164 107.646 61.4657 95.6904 65.6257C89.428 67.8268 83.9268 71.4448 79.7362 76.1187C74.5349 81.9236 71.611 89.0724 71.4076 96.482C64.1968 81.8146 64.1351 65.1613 71.2372 50.4524C85.1705 41.4423 102.556 37.6712 119.611 39.9594C130.941 41.4746 141.618 45.6153 150.561 51.9622Z" fill="#FFCD44"/>
</g>
<mask id="mask3_0_1" style="mask-type:luminance" maskUnits="userSpaceOnUse" x="44" y="39" width="132" height="117">
<path d="M175.206 39.3177H44.377V155.231H175.206V39.3177Z" fill="white"/>
</mask>
<g mask="url(#mask3_0_1)">
<path fill-rule="evenodd" clip-rule="evenodd" d="M45.1225 88.6499C46.3885 81.211 49.2828 74.0629 53.6428 67.6073C55.5227 64.8018 57.66 62.1381 60.033 59.6432C59.7064 60.9768 59.4295 62.3168 59.2023 63.663C57.2904 74.8801 58.7601 86.3456 63.4624 96.8971C68.1822 107.489 75.9523 116.801 85.9986 123.903C91.2853 127.619 97.5799 130.039 104.253 130.924C110.891 131.803 117.674 131.113 123.914 128.923C125.423 128.383 126.889 127.753 128.302 127.036C127.748 127.697 127.173 128.376 126.577 129.018C115.851 140.804 100.347 148.404 83.3786 150.193C67.6229 143.997 55.256 132.552 48.9566 118.336C44.7534 108.912 43.4309 98.6719 45.1225 88.6499Z" fill="#FF4040"/>
</g>
</g>
<path d="M36.0093 97.2746C36.0093 79.9372 43.7827 63.31 57.6196 51.0506C71.4565 38.7912 90.2233 31.904 109.792 31.904C129.36 31.904 148.127 38.7912 161.963 51.0506C175.8 63.31 183.574 79.9372 183.574 97.2746C183.574 114.612 175.8 131.239 161.963 143.499C148.127 155.758 129.36 162.645 109.792 162.645C90.2233 162.645 71.4565 155.758 57.6196 143.499C43.7827 131.239 36.0093 114.612 36.0093 97.2746ZM36.3066 97.2746C36.3066 114.542 44.0488 131.102 57.8299 143.312C71.611 155.522 90.3021 162.382 109.792 162.382C129.281 162.382 147.972 155.522 161.753 143.312C175.534 131.102 183.276 114.542 183.276 97.2746C183.276 80.0071 175.534 63.4468 161.753 51.2369C147.972 39.0269 129.281 32.1674 109.792 32.1674C90.3021 32.1674 71.611 39.0269 57.8299 51.2369C44.0488 63.4468 36.3066 80.0071 36.3066 97.2746Z" fill="url(#paint2_linear_0_1)"/>
<path d="M0 97.2746C0 71.4758 11.5673 46.7336 32.1572 28.4911C52.7471 10.2485 80.673 0 109.792 0C138.91 0 166.836 10.2485 187.426 28.4911C208.016 46.7336 219.583 71.4758 219.583 97.2746C219.583 123.073 208.016 147.816 187.426 166.058C166.836 184.301 138.91 194.549 109.792 194.549C80.673 194.549 52.7471 184.301 32.1572 166.058C11.5673 147.816 0 123.073 0 97.2746ZM0.297371 97.2746C0.297371 123.004 11.8333 147.679 32.3675 165.872C52.9016 184.065 80.7519 194.286 109.792 194.286C138.831 194.286 166.681 184.065 187.216 165.872C207.75 147.679 219.286 123.004 219.286 97.2746C219.286 71.5456 207.75 46.8705 187.216 28.6774C166.681 10.4843 138.831 0.263469 109.792 0.263469C80.7519 0.263469 52.9016 10.4843 32.3675 28.6774C11.8333 46.8705 0.297371 71.5456 0.297371 97.2746Z" fill="url(#paint3_linear_0_1)"/>
<mask id="mask4_0_1" style="mask-type:luminance" maskUnits="userSpaceOnUse" x="6" y="73" width="32" height="29">
<path d="M6 96.9807L13.3473 73.3186L37.5659 77.9755L30.2186 101.638L6 96.9807Z" fill="white"/>
</mask>
<g mask="url(#mask4_0_1)">
<path d="M20.9523 87.3192L19.0952 79.4701C19.0952 79.4701 18.7934 79.6881 18.6366 79.8551L14.0149 84.495C13.605 84.9051 13.3199 85.3551 13.1766 85.8164C13.031 86.2853 13.0202 86.7879 13.1435 87.3006L14.5248 93.0945C14.5684 93.2922 14.7061 93.6025 14.7061 93.6025L20.9523 87.3192ZM29.6586 89.5686L21.7739 88.0528L15.5416 94.2916C15.5416 94.2916 15.8377 94.4037 16.0282 94.4403L22.1226 95.6119C23.212 95.8214 23.7618 95.5327 24.405 94.8914L29.5001 89.7669L29.6586 89.5686ZM29.9983 88.4746L29.9739 88.2412L28.4567 81.8455C28.2619 81.043 27.9432 80.5875 26.8539 80.3781L20.7594 79.2064C20.569 79.1698 20.2405 79.1619 20.2405 79.1619L22.1137 86.9588L29.9983 88.4746Z" fill="url(#paint4_linear_0_1)"/>
</g>
<mask id="mask5_0_1" style="mask-type:luminance" maskUnits="userSpaceOnUse" x="184" y="73" width="32" height="29">
<path d="M215.094 97.0956L207.826 73.7151L184 78.3033L191.269 101.684L215.094 97.0956Z" fill="white"/>
</mask>
<g mask="url(#mask5_0_1)">
<path d="M200.364 87.5436L202.178 79.7901C202.178 79.7901 202.476 80.0056 202.63 80.1707L207.186 84.7571C207.59 85.1625 207.871 85.6071 208.013 86.063C208.157 86.5263 208.169 87.0229 208.048 87.5293L206.698 93.2526C206.656 93.4478 206.521 93.7544 206.521 93.7544L200.364 87.5436ZM191.799 89.7614L199.556 88.268L205.699 94.4347C205.699 94.4347 205.408 94.5453 205.221 94.5814L199.225 95.7357C198.154 95.9421 197.612 95.6566 196.978 95.0227L191.956 89.9573L191.799 89.7614ZM191.463 88.6804L191.487 88.4498L192.97 82.132C193.16 81.3393 193.473 80.8894 194.545 80.6831L200.54 79.5288C200.728 79.4927 201.051 79.485 201.051 79.485L199.22 87.187L191.463 88.6804Z" fill="url(#paint5_linear_0_1)"/>
</g>
<path d="M102.363 85.8098C102.363 88.4017 102.167 91.1704 101.776 94.1158C101.386 97.0612 100.848 99.5648 100.162 101.627C99.8056 102.068 99.3017 102.602 98.6505 103.228C97.9992 103.854 97.3206 104.403 96.6145 104.874C95.9084 105.345 95.3017 105.581 94.7944 105.581C94.0952 105.595 92.9332 105.441 91.3085 105.117C89.6839 104.793 88.2751 104.432 87.0823 104.034L87.8227 107.989L92.0592 108.276L92.635 111.015C92.3745 111.589 91.8844 112.16 91.1646 112.727C90.4448 113.294 89.5913 113.762 88.6042 114.13C87.617 114.498 86.6024 114.682 85.5604 114.682C84.7104 114.682 83.9529 114.502 83.2879 114.141C82.623 113.78 82.102 113.32 81.7249 112.76C81.3479 112.201 81.1594 111.634 81.1594 111.059C81.1594 110.396 81.2108 109.141 81.3136 107.293C81.4165 105.445 81.5501 104.16 81.7147 103.438C81.3856 102.731 81.012 100.979 80.5938 98.1804C80.1757 95.3823 79.8055 92.4701 79.4833 89.4437C79.1611 86.4173 79 84.4991 79 83.6891L79.0206 83.4461C79.6375 82.5478 80.467 81.8225 81.509 81.2702C82.551 80.7179 83.6273 80.4418 84.7378 80.4418C85.9992 80.4418 87.1234 80.8026 88.1106 81.5242L86.1568 92.5032L86.7532 92.8125L92.2443 80.3976C92.5322 80.3093 92.9264 80.2246 93.4268 80.1436C93.9272 80.0626 94.4448 80.0221 94.9795 80.0221C95.5553 80.0221 96.2649 80.1399 97.1081 80.3755C97.9512 80.6112 98.8321 80.9683 99.7507 81.4469C100.669 81.9256 101.513 82.5109 102.28 83.2031C102.335 83.91 102.363 84.7789 102.363 85.8098ZM94.342 91.73C94.342 90.7875 94.3008 89.8671 94.2186 88.9687L93.252 88.792C92.2511 90.4267 91.1577 92.2786 89.9718 94.3477C88.7858 96.4169 87.9872 97.9227 87.5759 98.8652C87.809 98.9683 88.1449 99.1303 88.5836 99.3512C89.4885 99.8078 90.2631 100.172 90.9075 100.445C91.5519 100.717 92.114 100.853 92.5939 100.853C93.1697 100.853 93.4919 100.61 93.5605 100.124C94.0815 96.9581 94.342 94.16 94.342 91.73ZM141.949 110.507C141.895 110.61 141.679 111.03 141.302 111.766C140.925 112.502 140.332 113.169 139.523 113.765C138.714 114.362 137.781 114.66 136.726 114.66C135.903 114.66 135.139 114.498 134.433 114.174C133.727 113.85 133.14 113.364 132.674 112.716C132.208 112.068 131.92 111.287 131.811 110.374C131.673 109.27 131.529 106.914 131.379 103.305C131.228 100.272 131.152 96.8329 131.152 92.9892C131.152 91.1041 131.173 89.5578 131.214 88.3502L130.823 88.2839L126.834 107.083C127.19 107.893 127.464 108.725 127.656 109.579C127.848 110.433 128.04 111.486 128.232 112.738L128.356 113.445C127.835 113.843 127.224 114.141 126.525 114.34C125.826 114.538 125.079 114.638 124.284 114.638C123.255 114.638 122.251 114.476 121.271 114.152C120.29 113.828 119.492 113.393 118.875 112.848C118.875 112.097 118.94 111.206 119.07 110.176C119.2 109.145 119.416 108.386 119.718 107.9L113.774 88.2618L113.384 88.4165C113.548 89.2412 113.802 90.9716 114.145 93.6077C114.487 96.2438 114.799 98.9867 115.08 101.836C115.361 104.686 115.516 106.987 115.543 108.74C115.571 110.507 115.207 111.935 114.453 113.025C113.699 114.115 112.479 114.66 110.792 114.66H110.669H110.402C109.223 114.63 108.139 114.295 107.152 113.655C106.165 113.014 105.48 112.156 105.096 111.081L106.021 107.481L108.304 107.679V107.481L109.723 88.2618L106.247 87.1352C106.357 85.5742 106.696 84.1751 107.265 82.938C107.834 81.701 108.777 80.7216 110.093 80C110.82 80.1031 111.876 80.3719 113.26 80.8063C114.645 81.2407 116.047 81.782 117.466 82.4299C118.885 83.0779 120.033 83.7627 120.911 84.4844L124.448 101.936L124.613 101.914L125.147 97.0538C125.641 93.9317 126.176 90.817 126.751 87.7096C125.847 87.2972 125.175 86.9511 124.736 86.6713C124.859 85.2428 125.298 83.9137 126.052 82.684C126.806 81.4543 127.841 80.5596 129.158 80C129.884 80.1031 130.954 80.4749 132.366 81.1156C133.778 81.7562 135.152 82.4889 136.489 83.3136C137.826 84.1383 138.775 84.8746 139.338 85.5226C139.187 89.44 138.981 93.2653 138.721 96.9986C138.46 100.732 138.042 104.211 137.466 107.436L141.291 106.84L141.949 110.507Z" fill="url(#paint6_linear_0_1)"/>
<defs>
<linearGradient id="paint0_linear_0_1" x1="43.4723" y1="7.2065" x2="58.9284" y2="69.534" gradientUnits="userSpaceOnUse">
<stop stop-color="#009EFD"/>
<stop offset="1" stop-color="#2AF598"/>
</linearGradient>
<linearGradient id="paint1_linear_0_1" x1="196.011" y1="187.494" x2="166.175" y2="90.0101" gradientUnits="userSpaceOnUse">
<stop stop-color="#2AF598"/>
<stop offset="1" stop-color="#009EFD"/>
</linearGradient>
<linearGradient id="paint2_linear_0_1" x1="160" y1="48" x2="60.0235" y2="145.757" gradientUnits="userSpaceOnUse">
<stop/>
<stop offset="1" stop-color="#FFFFFD" stop-opacity="0"/>
</linearGradient>
<linearGradient id="paint3_linear_0_1" x1="37" y1="26" x2="185" y2="167" gradientUnits="userSpaceOnUse">
<stop/>
<stop offset="1" stop-color="white" stop-opacity="0"/>
</linearGradient>
<linearGradient id="paint4_linear_0_1" x1="29.5" y1="89" x2="12.8723" y2="87.8567" gradientUnits="userSpaceOnUse">
<stop stop-color="#2AF598"/>
<stop offset="1" stop-color="#009EFD"/>
</linearGradient>
<linearGradient id="paint5_linear_0_1" x1="191.955" y1="89.1997" x2="208.314" y2="88.0524" gradientUnits="userSpaceOnUse">
<stop stop-color="#2AF598"/>
<stop offset="1" stop-color="#009EFD"/>
</linearGradient>
<linearGradient id="paint6_linear_0_1" x1="79" y1="97.341" x2="141.949" y2="97.341" gradientUnits="userSpaceOnUse">
<stop stop-color="#FF4040"/>
<stop offset="0.5" stop-color="#FFCD44"/>
<stop offset="1" stop-color="#42B0FF"/>
</linearGradient>
</defs>
</svg>
